<mxfile host="app.diagrams.net" modified="2023-10-08T08:08:09.848Z" agent="Mozilla/5.0 (Macintosh; Intel Mac OS X 10_15_7) AppleWebKit/537.36 (KHTML, like Gecko) Chrome/117.0.0.0 Safari/537.36" version="21.7.2" etag="aFddPZ1XEWpe91pJtomt" type="github">
  <diagram name="Page-1" id="4uHMcKMRvg0_LEWAuXip">
    <mxGraphModel>
      <root>
        <mxCell id="0" />
        <mxCell id="1" parent="0" />
      </root>
    </mxGraphModel>
  </diagram>
</mxfile>
